<?xml version="1.0" encoding="utf-8"?>
<!-- Generator: Adobe Illustrator 22.1.0, SVG Export Plug-In . SVG Version: 6.00 Build 0)  -->
<svg version="1.1" id="Слой_1" xmlns="http://www.w3.org/2000/svg" xmlns:xlink="http://www.w3.org/1999/xlink" x="0px" y="0px"
	 viewBox="0 0 90.4 100" style="enable-background:new 0 0 90.4 100;" xml:space="preserve">
<style type="text/css">
	.st0{fill:#FE6C61;}
</style>
<path d="M42.9,47.5L0.9,6c-1.1-1.1-1.1-3.4,0-5.1C2-0.3,4.3-0.3,6,0.9l39.2,39.2L84.4,0.9c1.1-1.1,3.4-1.1,5.1,0
	c1.1,1.1,1.1,3.4,0,5.1L47.5,47.5C46.3,49.2,44.1,49.2,42.9,47.5z"/>
<path class="st0" d="M42.9,98.6L0.9,56.6c-1.1-1.1-1.1-3.4,0-5.1c1.1-1.1,3.4-1.1,5.1,0l39.2,39.8L84.4,52c1.1-1.1,3.4-1.1,5.1,0
	c1.1,1.1,1.1,3.4,0,5.1L47.5,99.2C46.3,100.3,44.1,100.3,42.9,98.6z"/>
</svg>
