<?xml version="1.0" encoding="utf-8"?>
<!-- Generator: Adobe Illustrator 22.1.0, SVG Export Plug-In . SVG Version: 6.00 Build 0)  -->
<svg version="1.1" id="Слой_1" xmlns="http://www.w3.org/2000/svg" xmlns:xlink="http://www.w3.org/1999/xlink" x="0px" y="0px"
	 viewBox="0 0 126.9 100" style="enable-background:new 0 0 126.9 100;" xml:space="preserve">
<style type="text/css">
	.st0{fill:#FE6C61;}
	.st1{fill:#FFFFFF;}
</style>
<g>
	<g>
		<path d="M123.2,15.5c-2.7-2.7-5.9-4.1-10-4.1h-20v-0.5c0-3.2-1.4-5.9-3.2-7.7C87.7,1.4,85,0,81.8,0H45.5c-3.2,0-5.9,1.4-7.7,3.2
			c-2.3,2.3-3.6,5-3.6,7.7v0.5h-20c-4.1,0-7.7,1.4-10,4.1S0,21.8,0,25.5v60.5c0,4.1,1.4,7.7,4.1,10c2.7,2.7,6.4,4.1,10,4.1h98.6
			c4.1,0,7.7-1.4,10-4.1c2.7-2.7,4.1-6.4,4.1-10V25.5C127.3,21.8,125.9,18.2,123.2,15.5z M120.9,85.9L120.9,85.9
			c0,2.3-0.9,4.1-2.3,5.5c-1.4,1.4-3.2,2.3-5.5,2.3H14.1c-2.3,0-4.1-0.9-5.5-2.3s-2.3-3.2-2.3-5.5V25.5c0-2.3,0.9-4.1,2.3-5.5
			s3.2-2.3,5.5-2.3h23.2c2.3,0,3.6-1.4,3.6-3.2v-3.6c0-1.4,0.5-2.7,1.4-3.2c0.9-0.5,1.8-1.4,3.2-1.4h36.4c1.4,0,2.7,0.5,3.2,1.4
			c0.9,0.9,1.4,1.8,1.4,3.2v3.6c0,1.8,1.4,3.2,3.2,3.2h23.2c2.3,0,4.1,0.9,5.5,2.3c1.4,1.4,2.3,3.2,2.3,5.5v60.5H120.9z"/>
		<circle cx="106.8" cy="31.8" r="5.9"/>
	</g>
</g>
<circle class="st0" cx="62.7" cy="56.8" r="29.5"/>
<path class="st1" d="M81.8,59.1H45.5c-1.4,0-2.3-0.9-2.3-2.3l0,0c0-1.4,0.9-2.3,2.3-2.3h36.4c1.4,0,2.3,0.9,2.3,2.3l0,0
	C84.1,58.2,83.2,59.1,81.8,59.1z"/>
<path class="st1" d="M65.9,38.6V75c0,1.4-0.9,2.3-2.3,2.3l0,0c-1.4,0-2.3-0.9-2.3-2.3V38.6c0-0.9,0.9-2.3,2.3-2.3l0,0
	C65,36.4,65.9,37.7,65.9,38.6z"/>
</svg>
