<?xml version="1.0" encoding="utf-8"?>
<!-- Generator: Adobe Illustrator 22.1.0, SVG Export Plug-In . SVG Version: 6.00 Build 0)  -->
<svg version="1.1" id="Слой_1" xmlns="http://www.w3.org/2000/svg" xmlns:xlink="http://www.w3.org/1999/xlink" x="0px" y="0px"
	 viewBox="0 0 109.5 210" style="enable-background:new 0 0 109.5 210;" xml:space="preserve">
<style type="text/css">
	.st0{fill:#FE6C61;}
</style>
<g>
	<g>
		<g>
			<path d="M80.9,0C68.6,0,58.6,11.4,54.5,16.4C50.5,11.4,40.5,0,28.2,0C12.7,0,0,14.5,0,32.3c0,9.5,3.6,18.6,10.5,25
				c0,0,0,0.5,0.5,0.5l41.8,41.8c0.5,0.5,1.4,0.5,1.8,0.5c0.5,0,1.4,0,1.8-0.5L100,55.9l0.5-0.5c0.5-0.5,0.9-0.5,0.9-0.9l0.5-0.5
				c5-5.9,7.7-13.6,7.7-21.8C109.1,14.5,96.4,0,80.9,0z M97.7,51.4L97.7,51.4c-0.5,0.5-0.5,0.9-0.9,0.9L54.5,94.5l-40-40
				c0-0.5-0.5-0.5-0.5-0.5c-5.9-5.5-9.5-13.2-9.5-21.8c0-15.5,10.9-27.7,23.6-27.7c13.2,0,24.1,16.8,24.1,17.3
				c0.9,1.4,3.2,1.4,3.6,0c0,0,11.4-17.3,24.1-17.3c13.6,0,24.5,12.3,24.5,27.7C104.5,39.1,102.3,45.9,97.7,51.4z"/>
		</g>
	</g>
</g>
<g>
	<g>
		<g>
			<path class="st0" d="M80.9,110c-12.3,0-22.3,11.4-26.4,16.4c-4.1-5-14.1-16.4-26.4-16.4C12.7,110,0,124.5,0,142.3
				c0,9.5,3.6,18.6,10.5,25c0,0,0,0.5,0.5,0.5l41.8,41.8c0.5,0.5,1.4,0.5,1.8,0.5c0.5,0,1.4,0,1.8-0.5l43.6-43.6l0.5-0.5
				c0.5-0.5,0.9-0.5,0.9-0.9l0.5-0.5c5-5.9,7.7-13.6,7.7-21.8C109.1,124.5,96.4,110,80.9,110z M97.7,161.4L97.7,161.4
				c-0.5,0.5-0.5,0.9-0.9,0.9l-42.3,42.3l-40-40c0-0.5-0.5-0.5-0.5-0.5c-5.9-5.5-9.5-13.2-9.5-21.8c0-15.5,10.9-27.7,23.6-27.7
				c13.2,0,24.1,16.8,24.1,17.3c0.9,1.4,3.2,1.4,3.6,0c0,0,11.4-17.3,24.1-17.3c13.6,0,24.5,12.3,24.5,27.7
				C104.5,149.1,102.3,155.9,97.7,161.4z"/>
		</g>
	</g>
</g>
</svg>
