<?xml version="1.0" encoding="utf-8"?>
<!-- Generator: Adobe Illustrator 22.1.0, SVG Export Plug-In . SVG Version: 6.00 Build 0)  -->
<svg version="1.1" id="Слой_1" xmlns="http://www.w3.org/2000/svg" xmlns:xlink="http://www.w3.org/1999/xlink" x="0px" y="0px"
	 viewBox="0 0 100 208" style="enable-background:new 0 0 100 208;" xml:space="preserve">
<style type="text/css">
	.st0{fill:#E4E4E4;}
	.st1{fill:#3D3F3F;}
	.st2{fill:#FE6C61;}
	.st3{fill:#FFFFFF;}
</style>
<circle class="st0" cx="50" cy="50" r="50"/>
<g>
	<path class="st1" d="M59.4,29.3c2.2,1,3.8,2.4,4.9,4.1c1.1,1.7,1.7,3.6,1.7,5.7c0,1.9-0.3,3.5-1,4.8c-0.7,1.3-1.4,2.4-2.4,3.3
		C61.7,48,60.5,48.9,59,50c-1.9,1.3-3.3,2.4-4.3,3.5c-0.9,1.1-1.4,2.5-1.4,4.3v2.4H45v-2.7c0-2.1,0.3-3.9,1-5.4
		c0.7-1.5,1.5-2.6,2.4-3.5c0.9-0.9,2.1-1.8,3.6-2.8c1.6-1.1,2.7-2,3.5-2.8c0.7-0.8,1.1-1.8,1.1-3.1c0-1.5-0.5-2.7-1.6-3.6
		c-1-0.9-2.5-1.3-4.3-1.3c-3.3,0-6.3,1.5-8.9,4.6L36.1,35c4.1-4.8,9.2-7.2,15.5-7.2C54.6,27.8,57.2,28.3,59.4,29.3z M53.3,68.6
		c1.1,1.1,1.7,2.4,1.7,4c0,1.5-0.6,2.9-1.7,4s-2.5,1.7-4.1,1.7c-1.5,0-2.9-0.6-4-1.7s-1.6-2.5-1.6-4c0-1.6,0.5-2.9,1.6-4
		c1.1-1.1,2.4-1.6,4-1.6C50.9,66.9,52.2,67.5,53.3,68.6z"/>
</g>
<circle class="st2" cx="50" cy="158" r="50"/>
<g>
	<path class="st3" d="M59.4,137.3c2.2,1,3.8,2.4,4.9,4.1c1.1,1.7,1.7,3.6,1.7,5.7c0,1.9-0.3,3.5-1,4.8c-0.7,1.3-1.4,2.4-2.4,3.3
		c-0.9,0.8-2.1,1.8-3.6,2.8c-1.9,1.3-3.3,2.4-4.3,3.5c-0.9,1.1-1.4,2.5-1.4,4.3v2.4H45v-2.7c0-2.1,0.3-3.9,1-5.4
		c0.7-1.5,1.5-2.6,2.4-3.5c0.9-0.9,2.1-1.8,3.6-2.8c1.6-1.1,2.7-2,3.5-2.8c0.7-0.8,1.1-1.8,1.1-3.1c0-1.5-0.5-2.7-1.6-3.6
		c-1-0.9-2.5-1.3-4.3-1.3c-3.3,0-6.3,1.5-8.9,4.6l-5.8-4.5c4.1-4.8,9.2-7.2,15.5-7.2C54.6,135.8,57.2,136.3,59.4,137.3z M53.3,176.6
		c1.1,1.1,1.7,2.4,1.7,4c0,1.5-0.6,2.9-1.7,4s-2.5,1.7-4.1,1.7c-1.5,0-2.9-0.6-4-1.7s-1.6-2.5-1.6-4c0-1.6,0.5-2.9,1.6-4
		c1.1-1.1,2.4-1.6,4-1.6C50.9,174.9,52.2,175.5,53.3,176.6z"/>
</g>
</svg>
