<?xml version="1.0" encoding="utf-8"?>
<!-- Generator: Adobe Illustrator 22.1.0, SVG Export Plug-In . SVG Version: 6.00 Build 0)  -->
<svg version="1.1" id="Слой_1" xmlns="http://www.w3.org/2000/svg" xmlns:xlink="http://www.w3.org/1999/xlink" x="0px" y="0px"
	 viewBox="0 0 100.2 100" style="enable-background:new 0 0 100.2 100;" xml:space="preserve">
<g>
	<path d="M37.8,75.3c9.2,0,17.6-3.3,24.3-9.2l33.1,33.1c0.4,0.4,1.3,0.8,2.1,0.8s1.7-0.4,2.1-0.8c1.3-1.3,1.3-3.3,0-4.6L66.2,61.5
		c12.6-14.6,11.7-36.8-2.1-51C57,3.8,47.8,0,37.8,0S18.1,3.8,11,10.9C-3.7,25.5-3.7,49.4,11,64C18.1,71.5,27.7,75.3,37.8,75.3z
		 M15.6,15.5c5.9-5.9,13.8-9.2,22.2-9.2s16.3,3.3,22.2,9.2c12.1,12.1,12.1,32.2,0,44.4C54.1,65.7,46.1,69,37.8,69
		s-16.3-3.3-22.2-9.2C3.5,47.7,3.5,27.6,15.6,15.5z"/>
</g>
</svg>
