<?xml version="1.0" encoding="utf-8"?>
<!-- Generator: Adobe Illustrator 22.1.0, SVG Export Plug-In . SVG Version: 6.00 Build 0)  -->
<svg version="1.1" id="Слой_1" xmlns="http://www.w3.org/2000/svg" xmlns:xlink="http://www.w3.org/1999/xlink" x="0px" y="0px"
	 viewBox="0 0 100 210" style="enable-background:new 0 0 100 210;" xml:space="preserve">
<style type="text/css">
	.st0{fill:#FE6C61;}
</style>
<title>4.4</title>
<desc>Created with Sketch.</desc>
<g>
	<g>
		<g>
			<path d="M91.7,91.7V58.3c0-2.3,1.8-4.1,4.2-4.1c2.3,0,4.2,1.9,4.2,4.1v37.5c0,2.3-1.8,4.1-4.2,4.1c0,0,0,0,0,0c0,0,0,0,0,0H4.2
				c0,0,0,0,0,0s0,0,0,0C3,100,2,99.5,1.2,98.8C0.5,98,0,97,0,95.8c0,0,0,0,0,0c0,0,0,0,0,0V4.2c0,0,0,0,0,0c0,0,0,0,0,0
				C0,1.9,1.9,0,4.1,0h37.5c2.3,0,4.1,1.8,4.1,4.2c0,2.3-1.9,4.2-4.1,4.2H8.3v83.3H91.7z M91.7,14.2L38.1,67.8
				c-1.6,1.6-4.3,1.6-5.9,0c-1.6-1.6-1.6-4.3,0-5.9L85.8,8.3h-15c-2.3,0-4.2-1.8-4.2-4.2c0-2.3,1.9-4.2,4.2-4.2h25
				C97,0,98,0.5,98.8,1.2C99.5,2,100,3,100,4.2v25c0,2.3-1.8,4.2-4.2,4.2c-2.3,0-4.2-1.9-4.2-4.2V14.2z"/>
		</g>
	</g>
</g>
<title>4.4</title>
<desc>Created with Sketch.</desc>
<g>
	<g>
		<g>
			<path class="st0" d="M91.7,201.7v-33.4c0-2.3,1.8-4.1,4.2-4.1c2.3,0,4.2,1.9,4.2,4.1v37.5c0,2.3-1.8,4.1-4.2,4.1c0,0,0,0,0,0
				c0,0,0,0,0,0H4.2c0,0,0,0,0,0s0,0,0,0c-1.2,0-2.2-0.5-2.9-1.2C0.5,208,0,207,0,205.8c0,0,0,0,0,0c0,0,0,0,0,0v-91.7c0,0,0,0,0,0
				c0,0,0,0,0,0c0-2.3,1.9-4.2,4.1-4.2h37.5c2.3,0,4.1,1.8,4.1,4.2c0,2.3-1.9,4.2-4.1,4.2H8.3v83.3H91.7z M91.7,124.2l-53.6,53.6
				c-1.6,1.6-4.3,1.6-5.9,0c-1.6-1.6-1.6-4.3,0-5.9l53.6-53.6h-15c-2.3,0-4.2-1.8-4.2-4.2c0-2.3,1.9-4.2,4.2-4.2h25
				c1.1,0,2.2,0.5,2.9,1.2c0.8,0.8,1.2,1.8,1.2,2.9v25c0,2.3-1.8,4.2-4.2,4.2c-2.3,0-4.2-1.9-4.2-4.2V124.2z"/>
		</g>
	</g>
</g>
</svg>
