<?xml version="1.0" encoding="utf-8"?>
<!-- Generator: Adobe Illustrator 22.1.0, SVG Export Plug-In . SVG Version: 6.00 Build 0)  -->
<svg version="1.1" id="Слой_1" xmlns="http://www.w3.org/2000/svg" xmlns:xlink="http://www.w3.org/1999/xlink" x="0px" y="0px"
	 viewBox="0 0 52.4 100" style="enable-background:new 0 0 52.4 100;" xml:space="preserve">
<style type="text/css">
	.st0{fill:#FE6C61;}
</style>
<g>
	<g>
		<path d="M38.7,0C32.8,0,28,5.4,26.1,7.8C24.1,5.4,19.3,0,13.5,0C6.1,0,0,7,0,15.4c0,4.6,1.7,8.9,5,12c0,0,0,0.2,0.2,0.2l20,20
			c0.2,0.2,0.7,0.2,0.9,0.2s0.7,0,0.9-0.2l20.9-20.9l0.2-0.2c0.2-0.2,0.4-0.2,0.4-0.4l0.2-0.2c2.4-2.8,3.7-6.5,3.7-10.4
			C52.2,7,46.1,0,38.7,0z M46.7,24.6L46.7,24.6c-0.2,0.2-0.2,0.4-0.4,0.4L26.1,45.2L7,26.1c0-0.2-0.2-0.2-0.2-0.2
			c-2.8-2.6-4.6-6.3-4.6-10.4C2.2,8,7.4,2.2,13.5,2.2c6.3,0,11.5,8,11.5,8.3c0.4,0.7,1.5,0.7,1.7,0c0,0,5.4-8.3,11.5-8.3
			C44.8,2.2,50,8,50,15.4C50,18.7,48.9,22,46.7,24.6z"/>
	</g>
</g>
<g>
	<g>
		<path class="st0" d="M38.7,52.2c-5.9,0-10.7,5.4-12.6,7.8c-2-2.4-6.7-7.8-12.6-7.8C6.1,52.2,0,59.1,0,67.6c0,4.6,1.7,8.9,5,12
			c0,0,0,0.2,0.2,0.2l20,20c0.2,0.2,0.7,0.2,0.9,0.2s0.7,0,0.9-0.2l20.9-20.9l0.2-0.2c0.2-0.2,0.4-0.2,0.4-0.4l0.2-0.2
			c2.4-2.8,3.7-6.5,3.7-10.4C52.2,59.1,46.1,52.2,38.7,52.2z M46.7,76.7L46.7,76.7c-0.2,0.2-0.2,0.4-0.4,0.4L26.1,97.4L7,78.3
			C7,78,6.7,78,6.7,78c-2.8-2.6-4.6-6.3-4.6-10.4c0-7.4,5.2-13.3,11.3-13.3c6.3,0,11.5,8,11.5,8.3c0.4,0.7,1.5,0.7,1.7,0
			c0,0,5.4-8.3,11.5-8.3c6.3,0,11.5,5.9,11.5,13.3C50,70.9,48.9,74.1,46.7,76.7z"/>
	</g>
</g>
</svg>
