<?xml version="1.0" encoding="utf-8"?>
<!-- Generator: Adobe Illustrator 22.1.0, SVG Export Plug-In . SVG Version: 6.00 Build 0)  -->
<svg version="1.1" id="Слой_1" xmlns="http://www.w3.org/2000/svg" xmlns:xlink="http://www.w3.org/1999/xlink" x="0px" y="0px"
	 viewBox="0 0 101.1 200" style="enable-background:new 0 0 101.1 200;" xml:space="preserve">
<style type="text/css">
	.st0{fill:#FE6C61;}
</style>
<path d="M101.1,1.8c0-0.2,0-0.4-0.1-0.6c0-0.1,0-0.1-0.1-0.2c-0.1-0.2-0.2-0.4-0.4-0.6c0,0,0,0,0,0c0,0,0,0,0,0c0,0,0,0,0,0
	c-0.2-0.2-0.3-0.3-0.5-0.4c0,0-0.1,0-0.1-0.1C99.6,0.1,99.4,0,99.2,0c0,0,0,0,0,0c-0.2,0-0.4,0-0.5,0.1L1.4,28.7
	c-0.7,0.2-1.3,0.9-1.3,1.6c-0.1,0.8,0.3,1.5,1,1.9l45,22.9L67.9,99c0.3,0.6,1,1,1.7,1c0.1,0,0.1,0,0.2,0c0.8-0.1,1.4-0.6,1.6-1.3
	L101,2.4C101.1,2.3,101.1,2.1,101.1,1.8C101.1,1.9,101.1,1.8,101.1,1.8z M92.7,5.8L47,51.4L7,30.9L92.7,5.8z M69.1,93.1l-19.4-39
	L95.2,8.6L69.1,93.1z"/>
<path class="st0" d="M101.1,101.8c0-0.2,0-0.4-0.1-0.6c0-0.1,0-0.1-0.1-0.2c-0.1-0.2-0.2-0.4-0.4-0.6c0,0,0,0,0,0c0,0,0,0,0,0
	c0,0,0,0,0,0c-0.2-0.2-0.3-0.3-0.5-0.4c0,0-0.1,0-0.1-0.1c-0.2-0.1-0.4-0.1-0.6-0.1c0,0,0,0,0,0c-0.2,0-0.4,0-0.5,0.1L1.4,128.7
	c-0.7,0.2-1.3,0.9-1.3,1.6c-0.1,0.8,0.3,1.5,1,1.9l45,22.9L67.9,199c0.3,0.6,1,1,1.7,1c0.1,0,0.1,0,0.2,0c0.8-0.1,1.4-0.6,1.6-1.3
	l29.7-96.2C101.1,102.3,101.1,102.1,101.1,101.8C101.1,101.9,101.1,101.8,101.1,101.8z M92.7,105.8L47,151.4L7,130.9L92.7,105.8z
	 M69.1,193.1l-19.4-39l45.5-45.5L69.1,193.1z"/>
</svg>
