<?xml version="1.0" encoding="utf-8"?>
<!-- Generator: Adobe Illustrator 22.1.0, SVG Export Plug-In . SVG Version: 6.00 Build 0)  -->
<svg version="1.1" id="Слой_1" xmlns="http://www.w3.org/2000/svg" xmlns:xlink="http://www.w3.org/1999/xlink" x="0px" y="0px"
	 viewBox="0 0 78.1 300" style="enable-background:new 0 0 78.1 300;" xml:space="preserve">
<style type="text/css">
	.st0{fill:#FE6C61;}
</style>
<g>
	<path d="M69.3,144.1c1,1,2.3,1.5,3.6,1.5s2.6-0.5,3.6-1.5c2-2,2-5.3,0-7.3l-64-64l64-64c2-2,2-5.3,0-7.3c-2-2-5.3-2-7.3,0L1.5,69.2
		c-2,2-2,5.3,0,7.3L69.3,144.1z"/>
</g>
<g>
	<path class="st0" d="M69.3,298.5c1,1,2.3,1.5,3.6,1.5s2.6-0.5,3.6-1.5c2-2,2-5.3,0-7.3l-64-64l64-64c2-2,2-5.3,0-7.3
		c-2-2-5.3-2-7.3,0L1.5,223.6c-2,2-2,5.3,0,7.3L69.3,298.5z"/>
</g>
</svg>
