<?xml version="1.0" encoding="utf-8"?>
<!-- Generator: Adobe Illustrator 22.1.0, SVG Export Plug-In . SVG Version: 6.00 Build 0)  -->
<svg version="1.1" id="Слой_1" xmlns="http://www.w3.org/2000/svg" xmlns:xlink="http://www.w3.org/1999/xlink" x="0px" y="0px"
	 viewBox="0 0 85.5 100" style="enable-background:new 0 0 85.5 100;" xml:space="preserve">
<style type="text/css">
	.st0{fill:#FE6C61;}
</style>
<path class="st0" d="M40.6,44.9L0.8,5.6c-1.1-1.1-1.1-3.2,0-4.8c1.1-1.1,3.2-1.1,4.8,0l37.1,37.1L79.8,0.8c1.1-1.1,3.2-1.1,4.8,0
	c1.1,1.1,1.1,3.2,0,4.8L44.9,44.9C43.8,46.5,41.7,46.5,40.6,44.9z"/>
<path class="st0" d="M40.6,54.6L0.8,94.4c-1.1,1.1-1.1,3.2,0,4.8c1.1,1.1,3.2,1.1,4.8,0l37.1-37.6l37.1,37.1c1.1,1.1,3.2,1.1,4.8,0
	c1.1-1.1,1.1-3.2,0-4.8L44.9,54C43.8,53,41.7,53,40.6,54.6z"/>
</svg>
