<?xml version="1.0" encoding="utf-8"?>
<!-- Generator: Adobe Illustrator 22.1.0, SVG Export Plug-In . SVG Version: 6.00 Build 0)  -->
<svg version="1.1" id="Слой_1" xmlns="http://www.w3.org/2000/svg" xmlns:xlink="http://www.w3.org/1999/xlink" x="0px" y="0px"
	 viewBox="0 0 112 100" style="enable-background:new 0 0 112 100;" xml:space="preserve">
<style type="text/css">
	.st0{fill:#FE6C61;}
</style>
<g>
	<g>
		<g>
			<path d="M66.7,17.6c-10.1,0-18.4,9.4-21.7,13.5c-3.4-4.5-11.6-13.5-21.7-13.5C10.5,17.6,0,29.6,0,44.2c0,7.9,3,15.4,8.6,20.6
				c0,0,0,0.4,0.4,0.4l34.5,34.5c0.4,0.4,0.7,0.4,1.5,0.4c0.7,0,1.1,0,1.5-0.4l36-36l0.4-0.4c0.4-0.4,0.7-0.4,0.7-0.7l0.4-0.4
				c4.1-4.9,6.4-11.2,6.4-18C89.9,29.6,79.4,17.6,66.7,17.6z M80.5,59.9L80.5,59.9c-0.4,0.4-0.4,0.7-0.7,0.7L44.9,95.5l-33-33
				c0-0.4-0.4-0.4-0.4-0.4c-4.9-4.5-7.9-10.9-7.9-18c0-12.4,9-22.8,19.9-22.8s19.9,13.9,19.9,14.2c0.7,1.1,2.6,1.1,3,0
				c0,0,9.4-14.2,19.9-14.2c10.9,0,19.9,10.1,19.9,22.8C86.1,49.8,84.3,55.4,80.5,59.9z"/>
		</g>
	</g>
	<circle class="st0" cx="80.1" cy="31.8" r="31.8"/>
</g>
</svg>
