<?xml version="1.0" encoding="utf-8"?>
<!-- Generator: Adobe Illustrator 22.1.0, SVG Export Plug-In . SVG Version: 6.00 Build 0)  -->
<svg version="1.1" id="Слой_1" xmlns="http://www.w3.org/2000/svg" xmlns:xlink="http://www.w3.org/1999/xlink" x="0px" y="0px"
	 viewBox="0 0 111 102" style="enable-background:new 0 0 111 102;" xml:space="preserve">
<style type="text/css">
	.st0{fill:none;stroke:#FFFFFF;stroke-width:2;stroke-linecap:round;stroke-linejoin:round;stroke-miterlimit:10;}
	.st1{fill:none;stroke:#FFFFFF;stroke-width:1.5;stroke-linecap:round;stroke-linejoin:round;stroke-miterlimit:10;}
</style>
<g>
	<g>
		<path class="st0" d="M79.5,68.9c0-6.5,5.6-11.8,13.1-12.1V36.8H1v19.9c7.2,0.6,13.1,5.6,13.1,12.1S8.2,80.8,1,81.1V101h91.3V81.1
			C85.1,80.8,79.5,75.5,79.5,68.9z"/>
		<polygon class="st1" points="46.8,51.2 52.4,62.7 65.5,64.6 56.1,73.9 58.3,86.7 46.8,80.4 35.3,86.7 37.4,73.9 28.1,64.6 
			40.9,62.7 		"/>
	</g>
	<g>
		<path class="st0" d="M85.7,35.6c-2.5-5.9,0.6-13.1,7.2-16.5L85.1,1L1,36.8"/>
		<path class="st0" d="M80.1,73L110,60.2l-7.8-18.4c-3.4,1.2-6.9,1.2-10,0"/>
	</g>
</g>
</svg>
