<?xml version="1.0" encoding="utf-8"?>
<!-- Generator: Adobe Illustrator 22.1.0, SVG Export Plug-In . SVG Version: 6.00 Build 0)  -->
<svg version="1.1" id="Слой_1" xmlns="http://www.w3.org/2000/svg" xmlns:xlink="http://www.w3.org/1999/xlink" x="0px" y="0px"
	 viewBox="0 0 220 232.3" style="enable-background:new 0 0 220 232.3;" xml:space="preserve">
<path d="M143.9,119.7c18.4-11.4,30.7-31.8,30.7-55C174.7,29,145.7,0,110,0S45.3,29,45.3,64.7c0,23.2,12.3,43.6,30.7,55
	C32,134,0,175.5,0,224.3v8h220v-8C220,175.5,188,134,143.9,119.7z M61.3,64.7C61.3,37.8,83.2,16,110,16c26.8,0,48.7,21.8,48.7,48.7
	s-21.8,48.7-48.7,48.7C83.2,113.3,61.3,91.5,61.3,64.7z M16.3,216.3c4.1-48.1,44.5-86,93.7-86s89.6,37.9,93.7,86H16.3z"/>
</svg>
