<?xml version="1.0" encoding="utf-8"?>
<!-- Generator: Adobe Illustrator 22.1.0, SVG Export Plug-In . SVG Version: 6.00 Build 0)  -->
<svg version="1.1" id="Слой_1" xmlns="http://www.w3.org/2000/svg" xmlns:xlink="http://www.w3.org/1999/xlink" x="0px" y="0px"
	 viewBox="0 0 250 250" style="enable-background:new 0 0 250 250;" xml:space="preserve">
<style type="text/css">
	.st0{fill:#FE6C61;}
</style>
<g>
	<path class="st0" d="M125,227.5c-56.5,0-102.5-46-102.5-102.5S68.5,22.5,125,22.5s102.5,46,102.5,102.5S181.5,227.5,125,227.5z
		 M125,27.5c-53.8,0-97.5,43.8-97.5,97.5s43.8,97.5,97.5,97.5s97.5-43.8,97.5-97.5S178.8,27.5,125,27.5z"/>
</g>
<g>
	<path class="st0" d="M125,250C56,250,0,194,0,125S56,0,125,0s125,56,125,125S194,250,125,250z M125,10C61.5,10,10,61.5,10,125
		s51.5,115,115,115s115-51.5,115-115S188.5,10,125,10z"/>
</g>
<g>
	<g>
		<path class="st0" d="M148,78.3c0,0.3,0,0.3,0,0.5L145,91c-0.3,0.5-0.8,1-1.3,1h-18.5l0,0h-18.5c-0.8,0-1.3-0.5-1.3-1l-3-12.5
			c0-0.3,0-0.3,0-0.5c-1.3-0.5-2-1.5-2-2.8c0-1.5,1.3-3,3-3c1.8,0,3,1.3,3,3c0,1-0.5,1.8-1,2.3l3.8,4c1,1,2.3,1.5,3.8,1.5
			c1.8,0,3.3-0.8,4.3-2l6.3-8.5c-0.5-0.5-0.7-1.3-0.7-2c0-1.5,1.3-3,3-3s3,1.3,3,3c0,0.7-0.3,1.5-0.8,2l0,0l6.3,8.5
			c1,1.3,2.5,2,4.3,2c1.5,0,2.8-0.5,3.8-1.5l4-4c-0.8-0.5-1-1.3-1-2.2c0-1.5,1.3-3,3-3s3,1.3,3,3C150,76.8,149.3,77.8,148,78.3z
			 M144.5,96.5c0-0.8-0.8-1.5-1.5-1.5h-36c-0.8,0-1.5,0.8-1.5,1.5v3.2c0,0.8,0.8,1.5,1.5,1.5h36.3c0.8,0,1.5-0.8,1.5-1.5L144.5,96.5
			L144.5,96.5z"/>
	</g>
</g>
<g>
	<path class="st0" d="M87,126.3l9.3,48.8l9-48.8h5.7l-10.5,56h-9.3l-10.5-56H87z"/>
</g>
<g>
	<rect x="123.8" y="126.3" class="st0" width="6.3" height="6.5"/>
	<rect x="123.8" y="140.3" class="st0" width="6.3" height="42"/>
</g>
<g>
	<path class="st0" d="M156.8,126.3c8.8,0,12.5,5.3,12.5,13.8v6.8c0,9-4.3,13.5-13,13.5h-5.5v22h-6.3v-56H156.8z M156.3,154.8
		c4.8,0,7-2.3,7-7.5v-7.5c0-5-1.7-7.8-6.5-7.8h-6v22.8H156.3z"/>
</g>
</svg>
